<?xml version="1.0" encoding="utf-8"?>
<!-- Generator: Adobe Illustrator 19.2.1, SVG Export Plug-In . SVG Version: 6.00 Build 0)  -->
<svg version="1.1" id="Layer_1" xmlns="http://www.w3.org/2000/svg" xmlns:xlink="http://www.w3.org/1999/xlink" x="0px" y="0px"
	 viewBox="0 0 574 134" style="enable-background:new 0 0 574 134;" xml:space="preserve">
<metadata><?xpacket begin="﻿" id="W5M0MpCehiHzreSzNTczkc9d"?>
<x:xmpmeta xmlns:x="adobe:ns:meta/" x:xmptk="Adobe XMP Core 5.6-c111 79.158366, 2015/09/25-01:12:00        ">
   <rdf:RDF xmlns:rdf="http://www.w3.org/1999/02/22-rdf-syntax-ns#">
      <rdf:Description rdf:about=""/>
   </rdf:RDF>
</x:xmpmeta>
                                                                                                    
                                                                                                    
                                                                                                    
                                                                                                    
                                                                                                    
                                                                                                    
                                                                                                    
                                                                                                    
                                                                                                    
                                                                                                    
                                                                                                    
                                                                                                    
                                                                                                    
                                                                                                    
                                                                                                    
                                                                                                    
                                                                                                    
                                                                                                    
                                                                                                    
                                                                                                    
                           
<?xpacket end="w"?></metadata>
<style type="text/css">
	.st0{fill:#FFFFFF;}
</style>
<path id="Moriyama_Daido_Logo" class="st0" d="M513.3,28.2c0.6-0.1,1.1,0.4,1.1,1c0,0.1,0,0.1,0,0.2l0.1,12.9c0.1,0.6-0.4,1.1-1,1.1
	c-0.1,0-0.1,0-0.2,0c-9.1,0-3,0.3-10.6-2c-1.4-0.3-10.3-2.9-11.3-1.9c-0.3,0.2-0.4,0.5-0.4,0.9v66c0,1.7,2.6,1.3,3.7,1.3
	c1.9,0,12.7-0.9,12.7-3.4c0-1.6-0.6-4.6,1.1-4.6h35.2c2.1,0,0.4,4,1.6,5.1c3.6,2.7,10.7,3.3,15,2.9c0.5,0,1-0.4,1-0.9
	c0-0.1,0-0.2,0-0.3V40.8c0-1-0.4-1.3-1.4-1.1c-2,0.4-14.3,3.7-15.1,3.7h-25c-0.6,0-1.1-0.6-1.1-1.2c0-0.3,0.1-0.6,0.4-0.8l13.8-12.9
	c0.2-0.2,0.4-0.3,0.7-0.3h38.1c0.4-1,0.9-2.3-0.7-2.3h-36.2c-0.6,0-1.1-0.6-1.1-1.2c0-0.3,0.1-0.6,0.4-0.8l15.8-14
	c0.4-0.4,4.4-0.9,4-2.9c-0.1-0.4-0.3-0.7-0.7-0.9l-17.8-5.8c-0.4-0.3-1-0.3-1.4,0.1c-0.2,0.2-0.2,0.5-0.2,0.7L529.1,25
	c-0.1,0.5-0.6,0.9-1.1,0.9h-11.8c-0.6,0-1.1-0.4-1.2-1c0-0.3,0.1-0.6,0.3-0.8c3.9-3.9,6.4-11,2-15.1s-11.8-5.7-17.7-6.7
	c-0.6-0.1-1.2,0.3-1.3,0.9c-0.1,0.3,0,0.6,0.2,0.8c3,6.3,5.6,13.7,8.3,20.4c0.4,1-0.1,1.6-1.1,1.6h-20.1c-1.6,0-1.1,1.3-0.7,2.3
	L513.3,28.2L513.3,28.2z M458.9,64.5c0.6-0.1,1.1,0.4,1.1,0.9c0,0.1,0,0.1,0,0.2v40.1c0.1,0.4-0.2,0.9-0.6,1l-16.4,6.9
	c-0.7,0.4-1,0.9-0.6,1.6l11,18c0.3,0.5,1,0.7,1.6,0.4c0.1-0.1,0.2-0.2,0.3-0.3l15-22.1c1.6-1.9,4.6-2.7,5.8-0.3
	c8.3,16.6,26,20.7,43.4,21.4c15,0.6,30.7-0.4,46.6-1.6c0.5,0,1-0.5,1-1c0.8-6.1,3.1-11.9,6.6-17c0.4-0.5,0.3-1.2-0.2-1.6
	c-0.2-0.2-0.5-0.3-0.8-0.2c-20.8,1.9-60.5,5.7-79.4,2.7c-6.3-1-11.6-2.9-16-7.3c-0.2-0.2-0.3-0.5-0.3-0.9V59c0-0.7-0.5-1.2-1.2-1.2
	c-0.1,0-0.3,0-0.4,0.1L460.1,62v0.1h-15c-1.6,0-1.3,1.3-0.7,2.3H458.9z M543.9,63.5c0.5-0.1,1,0.2,1.1,0.7c0,0.1,0,0.2,0,0.3v13.9
	c0.1,0.6-0.4,1.1-1,1.1c-0.1,0-0.1,0-0.2,0h-35.2c-0.6,0.1-1.1-0.4-1.1-1c0-0.1,0-0.1,0-0.2V64.5c0-0.5,0.4-1,0.9-1
	c0.1,0,0.2,0,0.3,0H543.9L543.9,63.5z M543.9,81.6c0.6-0.1,1.1,0.4,1.1,1c0,0.1,0,0.1,0,0.2v13.7c0.1,0.6-0.4,1.1-1,1.1
	c-0.1,0-0.1,0-0.2,0h-35.2c-0.6,0.1-1.1-0.4-1.1-0.9c0-0.1,0-0.1,0-0.2V82.7c-0.1-0.6,0.4-1.1,0.9-1.1c0.1,0,0.1,0,0.2,0L543.9,81.6
	L543.9,81.6z M543.9,45.9c0.6-0.1,1.1,0.4,1.1,1c0,0.1,0,0.1,0,0.2v13c0.1,0.6-0.4,1.1-1,1.1c-0.1,0-0.1,0-0.2,0h-35.2
	c-0.6,0.1-1.1-0.4-1.1-0.9c0-0.1,0-0.1,0-0.2V47c-0.1-0.6,0.4-1.1,0.9-1.1c0.1,0,0.1,0,0.2,0L543.9,45.9L543.9,45.9z M467.2,38.8
	c18.4-6.1,20.4-27.7-14.5-33c-0.6-0.1-1.2,0.4-1.3,1c0,0.2,0,0.5,0.1,0.7c5.8,9.6,10.1,20.4,14.3,30.6c0.2,0.6,0.7,0.9,1.3,0.8
	C467.1,38.8,467.1,38.8,467.2,38.8 M347.1,2.6c0.8,12.4,0.9,24.9,0.3,37.3c0,0.6-0.4,1.1-1,1.1c-0.1,0-0.1,0-0.2,0h-47.1
	c-1.7,0-1.3,2.7,0.3,2.7h46.4c0.5-0.1,1,0.2,1.2,0.7c0.1,0.2,0,0.4,0,0.6c-3.4,38.4-18,62.1-47.1,86c-0.5,0.4-0.6,1.1-0.2,1.6
	c0.3,0.4,0.9,0.6,1.4,0.4c32.4-13,53.9-28.7,62.6-64.1c1.8-7.9,3-15.9,3.6-24c0.1-0.7,0.7-1.2,1.4-1.2c0.6,0.1,1.1,0.5,1.2,1.2
	c1.1,25.3,8.6,52.4,22.5,72.8c3.5,5.1,7.6,9.8,12.3,13.9c0.5,0.4,1.2,0.3,1.6-0.1c6.7-7,13.8-13.6,21.3-19.7
	c0.5-0.5,0.5-1.3-0.1-1.8c-0.1-0.1-0.1-0.1-0.2-0.2c-27.4-13-45.1-36.7-55.6-64.4c-0.3-0.5-0.1-1.2,0.5-1.5c0.2-0.1,0.4-0.1,0.7-0.1
	h51.6c1.6,0,2.1-2.7,0.3-2.7h-55.9c-0.6,0-1.1-0.4-1.2-1c0-0.1,0-0.2,0-0.2c0.5-9.3,0.6-18.6,0.1-27.9c0-1.9,4-0.9,6-5.9
	c0.4-1,0.1-1.4-0.9-1.4l-24.4-3.3c-0.7,0-1.2,0.4-1.3,1.1C347.1,2.5,347.1,2.6,347.1,2.6 M251.3,129.6c5.3,2.9,11.1,3.3,16.7,2.7
	c0.5,0,1-0.4,1-0.9c0-0.1,0-0.2,0-0.3V42.8c0-1.6,3.6-1,4.7-4.9c0.3-0.4,0.3-1-0.1-1.4c-0.2-0.2-0.5-0.2-0.7-0.2L252,32.9
	c-0.6-0.1-1.2,0.3-1.3,0.9c0,0.1,0,0.2,0,0.2v80.7c0.1,0.6-0.4,1.1-1,1.1c-0.1,0-0.1,0-0.2,0h-27c-0.6,0.1-1.1-0.4-1.1-1
	c0-0.1,0-0.1,0-0.2V15c0-1.6,4.1-1.3,5.3-6.1c0.2-0.6-0.1-1.2-0.7-1.4c-0.1,0-0.2,0-0.3,0L204,4c-1-0.1-1.4,0.1-1.4,1.1v109.5
	c0.1,0.6-0.4,1.1-1,1.1c-0.1,0-0.1,0-0.2,0h-25.8c-0.6,0.1-1.1-0.4-1.1-1c0-0.1,0-0.1,0-0.2V43.6c0-1.6,4-1.3,5.1-5
	c0.3-0.4,0.3-1-0.1-1.4c-0.2-0.2-0.5-0.2-0.7-0.2l-21-3.1c-0.6-0.1-1.1,0.2-1.3,0.8c0,0.1,0,0.1,0,0.2v94c0,0.6,0.4,1.1,1,1.1
	c5.7,0.4,11.7-0.7,16.4-4.3c1.6-1.1-0.9-7.7,1.7-7.7h73.9c0.6-0.1,1.1,0.4,1.1,1c0,0.1,0,0.1,0,0.2v9.4
	C250.6,129,250.8,129.4,251.3,129.6 M43.7,21.5c0.6,0,1.1,0.5,1.2,1.1c0,0.2,0,0.4-0.2,0.6C34.9,38.2,21.6,48.6,7.2,59
	c-0.5,0.4-0.6,1.1-0.2,1.6C7.3,61,7.8,61.2,8.2,61c17.3-4.6,33.5-12.3,46.6-24.7c0.4-0.4,1.1-0.4,1.6,0c0.2,0.2,0.3,0.5,0.3,0.8
	v23.4c0,1.7,2.6,1.1,3.6,1.1c4.1-0.4,9.3-1,12.7-3.7c0.3-0.2,0.5-0.5,0.4-0.9V21.5c0.7-0.2,1.4,0.1,1.9,0.6
	c7.5,15.6,20.7,27.8,36.9,33.8c5.6,2.3,1.7,1.3,9.7-9.4c1.6-2.1,3.3-4.2,5.3-6c0.5-0.5,0.5-1.2,0-1.7c-0.2-0.2-0.5-0.3-0.7-0.3
	c-16.1-1.6-34.5-5.9-46.6-15c-0.5-0.3-0.7-1-0.3-1.5c0.2-0.3,0.5-0.5,0.9-0.5h43.4c0.7-1,0.9-2.3-0.7-2.3H74.5
	c-0.6,0.1-1.1-0.4-1.1-1c0-0.1,0-0.1,0-0.2c0-11.3-0.9-8.6,2.7-10.1c2.1-0.9,3.3-4,1.4-4.4L58.1,0c-1-0.1-1.4,0.1-1.4,1.1V18
	c0.1,0.6-0.4,1.1-0.9,1.1c-0.1,0-0.1,0-0.2,0H7.9c-1.6,0-1.3,1.3-0.7,2.3H43.7z M71.4,78.6c1,0,4.6-0.6,3.9,1.6
	c-4.7,14.7-14,27.1-23.8,38.7c-0.4,0.4-0.4,1.2,0,1.6c0.4,0.4,1,0.4,1.4,0.1c10.5-5.8,19.9-13.3,27.8-22.3c0.5-0.5,1.3-0.5,1.8,0
	c0.2,0.2,0.3,0.4,0.4,0.7v33.8c0,1.6,2.1,1.1,3.3,1c4.1-0.4,8.8-1.4,12.1-4.3c0.3-0.2,0.4-0.5,0.4-0.9V78.6c0.6-0.1,1.2,0.4,1.3,1
	c0,0,0,0,0,0c1.9,12.9,6.1,28.3,14.1,37.4c1,1,3.6,4.9,4.9,2.9c3.4-5.6,7.4-10.3,12.6-13.3c0.6-0.2,0.9-0.7,0.7-1.3
	c-0.1-0.3-0.4-0.6-0.7-0.7c-12.4-5.9-22.2-13.4-29-24.3c-0.4-0.4-0.3-1.1,0.1-1.5c0.2-0.2,0.5-0.3,0.8-0.3H128
	c1.4,0,2.3-2.9,0.4-2.9H99.8c-0.6,0.1-1.1-0.4-1.1-1c0-0.1,0-0.1,0-0.2c0-12.3-0.4-6.9,3-10.3c0.4-0.7,2.7-3.3,0.4-3.7l-18-3.3
	c-0.5-0.2-1,0-1.2,0.5c-0.1,0.2-0.1,0.4,0,0.6v16.1c0.1,0.6-0.4,1.1-1,1.1c-0.1,0-0.1,0-0.2,0H71.1C69.3,75.7,70,78.6,71.4,78.6
	 M20.1,78.6c0.6-0.1,1.2,0.3,1.2,0.9c0,0.2,0,0.5-0.1,0.7c-4.7,13.7-12.4,26.4-21,38.4c-0.4,0.5-0.3,1.2,0.2,1.6
	c0.3,0.3,0.8,0.3,1.2,0.1c8-5,16-11,22.2-18.4c0.3-0.5,1-0.6,1.5-0.3c0.3,0.2,0.5,0.6,0.5,1v29.6c0,1.6,2.3,1,3.3,1
	c4.4-0.4,9.6-1.3,12.8-4.6c0.2-0.2,0.3-0.4,0.3-0.7V79.7c-0.1-0.6,0.4-1.1,0.9-1.1c0.1,0,0.1,0,0.2,0h23.1c1.4,0,2.3-2.9,0.4-2.9
	H43.4c-0.6,0.1-1.1-0.4-1.1-1c0-0.1,0-0.1,0-0.2c0-11.7-0.9-7,3.4-10.1c0.9-0.4,2.7-3.1,0.7-3.4l-19.3-3.7c-0.6-0.1-1.2,0.4-1.3,1
	c0,0,0,0.1,0,0.1v16.1c0.1,0.6-0.4,1.1-1,1.1c-0.1,0-0.1,0-0.2,0h-21c-1.7,0-1.1,2.9,0.4,2.9H20.1L20.1,78.6z M53,106.9
	c12.8-4.9,10-15.4-2.6-20c-1-0.4-5.7-2-6.6-0.9c-0.3,0.3-0.3,0.8-0.1,1.1c3.1,6.1,5.8,12.5,7.8,19c0.1,0.6,0.7,0.9,1.2,0.8
	C52.9,106.9,52.9,106.9,53,106.9"/>
</svg>
