<svg xmlns="http://www.w3.org/2000/svg" width="72.125" height="16.75" viewBox="0 0 72.125 16.75">
  <defs>
    <style>
      .cls-1 {
        fill: #fff;
        fill-rule: evenodd;
      }
    </style>
  </defs>
  <path id="Moriyama_Daido_Logo" data-name="Moriyama Daido Logo" class="cls-1" d="M80.227,14.088a0.131,0.131,0,0,1,.143.143l0.018,1.607a0.132,0.132,0,0,1-.143.143,1.962,1.962,0,0,1-1.327-.25A4.588,4.588,0,0,0,77.5,15.5a0.154,0.154,0,0,0-.054.107v8.246c0,0.214.323,0.161,0.466,0.161,0.233,0,1.6-.107,1.6-0.428,0-.2-0.072-0.571.143-0.571h4.428c0.269,0,.054.5,0.2,0.642a3.111,3.111,0,0,0,1.882.357,0.119,0.119,0,0,0,.125-0.143v-8.21c0-.125-0.054-0.16-0.179-0.143-0.251.054-1.793,0.464-1.9,0.464H81.07a0.145,0.145,0,0,1-.09-0.25l1.739-1.606a0.137,0.137,0,0,1,.09-0.036h4.786c0.054-.125.108-0.286-0.09-0.286H82.952a0.144,0.144,0,0,1-.09-0.249l1.99-1.749c0.054-.054.556-0.107,0.5-0.357a0.139,0.139,0,0,0-.09-0.107l-2.241-.732a0.121,0.121,0,0,0-.2.107L82.217,13.7a0.136,0.136,0,0,1-.143.107H80.586a0.137,0.137,0,0,1-.108-0.232,1.365,1.365,0,0,0,.251-1.892,4.449,4.449,0,0,0-2.223-.838,0.139,0.139,0,0,0-.143.214c0.376,0.786.7,1.714,1.04,2.553,0.054,0.125-.018.2-0.143,0.2H76.731c-0.2,0-.143.161-0.09,0.286h3.585ZM73.4,18.622a0.131,0.131,0,0,1,.143.143V23.78a0.107,0.107,0,0,1-.072.125l-2.062.857c-0.09.053-.125,0.107-0.072,0.2l1.38,2.249a0.144,0.144,0,0,0,.233.018l1.882-2.767a0.438,0.438,0,0,1,.735-0.036c1.04,2.071,3.263,2.588,5.45,2.678a54.666,54.666,0,0,0,5.862-.2A0.132,0.132,0,0,0,87,26.778a4.976,4.976,0,0,1,.825-2.124,0.143,0.143,0,0,0-.126-0.232c-2.617.232-7.6,0.714-9.985,0.34a3.424,3.424,0,0,1-2.008-.911,0.149,0.149,0,0,1-.036-0.107v-5.8a0.149,0.149,0,0,0-.2-0.143l-1.936.518v0.018H71.658c-0.2,0-.161.161-0.09,0.286H73.4ZM84.081,18.5a0.119,0.119,0,0,1,.144.125v1.731a0.132,0.132,0,0,1-.144.143H79.654a0.132,0.132,0,0,1-.143-0.143V18.622a0.119,0.119,0,0,1,.143-0.125h4.428Zm0,2.267a0.132,0.132,0,0,1,.144.143V22.62a0.132,0.132,0,0,1-.144.143H79.654a0.132,0.132,0,0,1-.143-0.143V20.906a0.132,0.132,0,0,1,.143-0.143h4.428Zm0-4.462a0.132,0.132,0,0,1,.144.143v1.624a0.131,0.131,0,0,1-.144.143H79.654a0.131,0.131,0,0,1-.143-0.143V16.444a0.132,0.132,0,0,1,.143-0.143h4.428Zm-9.644-.892c2.312-.768,2.564-3.463-1.829-4.123a0.146,0.146,0,0,0-.144.214,26.414,26.414,0,0,1,1.793,3.82,0.134,0.134,0,0,0,.179.089M59.343,10.893a40.583,40.583,0,0,1,.036,4.659,0.132,0.132,0,0,1-.143.143H53.319c-0.215,0-.161.34,0.036,0.34h5.826c0.126,0,.161.053,0.143,0.161-0.43,4.8-2.259,7.764-5.916,10.745a0.145,0.145,0,0,0,.144.25c4.069-1.625,6.776-3.587,7.87-8.015a19.647,19.647,0,0,0,.448-3,0.162,0.162,0,0,1,.323,0,17.926,17.926,0,0,0,2.832,9.1,9.181,9.181,0,0,0,1.542,1.731,0.141,0.141,0,0,0,.2-0.018,28.7,28.7,0,0,1,2.671-2.463,0.162,0.162,0,0,0-.036-0.25,14.045,14.045,0,0,1-6.991-8.05,0.136,0.136,0,0,1,.143-0.2h6.49c0.2,0,.269-0.34.036-0.34H62.05a0.137,0.137,0,0,1-.143-0.16,32.163,32.163,0,0,0,.018-3.481c0-.232.5-0.107,0.753-0.732,0.054-.125.018-0.178-0.108-0.178L59.5,10.732a0.15,0.15,0,0,0-.161.161M47.3,26.761a3.59,3.59,0,0,0,2.1.34,0.119,0.119,0,0,0,.125-0.143V15.909a2.336,2.336,0,0,0,.592-0.607,0.121,0.121,0,0,0-.108-0.2l-2.617-.428a0.137,0.137,0,0,0-.161.143V24.9a0.132,0.132,0,0,1-.144.143H43.693A0.132,0.132,0,0,1,43.55,24.9V12.445a1.986,1.986,0,0,0,.663-0.768,0.137,0.137,0,0,0-.125-0.178l-2.725-.428c-0.126-.018-0.179.018-0.179,0.143V24.9a0.132,0.132,0,0,1-.143.143H37.8a0.132,0.132,0,0,1-.143-0.143V16.016a2.76,2.76,0,0,0,.645-0.625,0.121,0.121,0,0,0-.108-0.2L35.554,14.8a0.134,0.134,0,0,0-.161.125V26.672a0.136,0.136,0,0,0,.126.143,3.032,3.032,0,0,0,2.062-.535c0.2-.143-0.108-0.964.215-0.964h9.286a0.132,0.132,0,0,1,.144.143v1.178a0.107,0.107,0,0,0,.072.125M21.213,13.249a0.14,0.14,0,0,1,.126.214,17.58,17.58,0,0,1-4.715,4.48,0.143,0.143,0,0,0,.126.25,13.386,13.386,0,0,0,5.862-3.088,0.138,0.138,0,0,1,.233.107V18.14c0,0.214.323,0.143,0.448,0.143a3.134,3.134,0,0,0,1.6-.464,0.109,0.109,0,0,0,.054-0.108V13.249a0.235,0.235,0,0,1,.233.072,8.4,8.4,0,0,0,4.643,4.23c0.7,0.285.215,0.16,1.219-1.178a5.812,5.812,0,0,1,.663-0.75,0.146,0.146,0,0,0-.09-0.25A12.171,12.171,0,0,1,25.749,13.5a0.135,0.135,0,0,1,.072-0.25h5.45c0.09-.125.108-0.285-0.09-0.285h-6.1a0.132,0.132,0,0,1-.143-0.143c0-1.41-.108-1.071.341-1.268,0.269-.107.412-0.5,0.179-0.553l-2.438-.428c-0.126-.018-0.179.018-0.179,0.143v2.107a0.132,0.132,0,0,1-.143.143H16.714c-0.2,0-.161.161-0.09,0.285h4.589Zm3.478,7.14c0.125,0,.574-0.072.484,0.2a14.421,14.421,0,0,1-2.994,4.837,0.141,0.141,0,0,0,.179.214,13.051,13.051,0,0,0,3.5-2.784,0.159,0.159,0,0,1,.269.089v4.23c0,0.2.269,0.143,0.412,0.125a2.753,2.753,0,0,0,1.524-.535,0.154,0.154,0,0,0,.054-0.107V20.388a0.143,0.143,0,0,1,.161.125,9.578,9.578,0,0,0,1.775,4.676c0.126,0.125.448,0.607,0.61,0.358a4.7,4.7,0,0,1,1.578-1.66,0.13,0.13,0,0,0,0-.25A8.14,8.14,0,0,1,28.6,20.6a0.129,0.129,0,0,1,.108-0.214h3.1c0.179,0,.287-0.357.054-0.357h-3.6a0.132,0.132,0,0,1-.143-0.143c0-1.535-.054-0.857.376-1.285,0.054-.089.341-0.41,0.054-0.464l-2.259-.411a0.12,0.12,0,0,0-.161.143v2.017a0.132,0.132,0,0,1-.143.143H24.655c-0.233,0-.143.357,0.036,0.357m-6.453,0a0.136,0.136,0,0,1,.143.2,19.053,19.053,0,0,1-2.635,4.8,0.144,0.144,0,0,0,.179.214,11.865,11.865,0,0,0,2.8-2.3,0.139,0.139,0,0,1,.251.09v3.695c0,0.2.287,0.125,0.412,0.125A2.613,2.613,0,0,0,21,26.636a0.137,0.137,0,0,0,.036-0.09V20.532a0.132,0.132,0,0,1,.143-0.143h2.9c0.179,0,.287-0.357.054-0.357H21.177a0.132,0.132,0,0,1-.143-0.143c0-1.463-.108-0.875.43-1.267,0.108-.054.341-0.393,0.09-0.429l-2.42-.464a0.145,0.145,0,0,0-.161.143v2.017a0.132,0.132,0,0,1-.143.143H16.194c-0.215,0-.143.357,0.054,0.357h1.99Zm4.141,3.534c1.614-.607,1.255-1.928-0.323-2.5a1.229,1.229,0,0,0-.825-0.107,0.134,0.134,0,0,0-.018.143,15.387,15.387,0,0,1,.986,2.374,0.128,0.128,0,0,0,.179.089" transform="translate(-15.719 -10.563)"/>
</svg>
