<?xml version="1.0" encoding="utf-8"?>
<!-- Generator: Adobe Illustrator 19.2.1, SVG Export Plug-In . SVG Version: 6.00 Build 0)  -->
<svg version="1.1" id="Layer_1" xmlns="http://www.w3.org/2000/svg" xmlns:xlink="http://www.w3.org/1999/xlink" x="0px" y="0px"
	 viewBox="0 0 25 17" style="enable-background:new 0 0 25 17;" xml:space="preserve">
<metadata><?xpacket begin="﻿" id="W5M0MpCehiHzreSzNTczkc9d"?>
<x:xmpmeta xmlns:x="adobe:ns:meta/" x:xmptk="Adobe XMP Core 5.6-c111 79.158366, 2015/09/25-01:12:00        ">
   <rdf:RDF xmlns:rdf="http://www.w3.org/1999/02/22-rdf-syntax-ns#">
      <rdf:Description rdf:about=""/>
   </rdf:RDF>
</x:xmpmeta>
                                                                                                    
                                                                                                    
                                                                                                    
                                                                                                    
                                                                                                    
                                                                                                    
                                                                                                    
                                                                                                    
                                                                                                    
                                                                                                    
                                                                                                    
                                                                                                    
                                                                                                    
                                                                                                    
                                                                                                    
                                                                                                    
                                                                                                    
                                                                                                    
                                                                                                    
                                                                                                    
                           
<?xpacket end="w"?></metadata>
<style type="text/css">
	.st0{fill:#FFFFFF;}
</style>
<path id="Menu_Icon" class="st0" d="M23.6,2.6H1.4C0.6,2.7,0,2.1,0,1.4S0.5,0,1.3,0h0.1h22.3C24.4,0,25,0.5,25,1.3s-0.5,1.3-1.3,1.4
	C23.7,2.6,23.7,2.6,23.6,2.6z M23.6,17H1.4C0.6,17,0,16.4,0,15.7c0-0.7,0.6-1.3,1.3-1.4c0,0,0,0,0.1,0h22.3c0.7,0,1.3,0.5,1.4,1.3
	c0,0.7-0.5,1.3-1.3,1.4C23.7,17,23.7,17,23.6,17L23.6,17z M23.6,9.8H1.4C0.6,9.8,0,9.2,0,8.5s0.6-1.3,1.3-1.3l0,0h22.3
	c0.7,0,1.3,0.6,1.4,1.3S24.4,9.8,23.6,9.8C23.7,9.8,23.7,9.8,23.6,9.8L23.6,9.8z"/>
</svg>
