<svg xmlns="http://www.w3.org/2000/svg" width="150" height="150" viewBox="0 0 150 150">
  <defs>
    <style>
      .cls-1 {
        fill: #fff;
        fill-rule: evenodd;
      }
    </style>
  </defs>
  <path id="Logo" class="cls-1" d="M702.136,254.44a15.449,15.449,0,0,0,9.072,1.475,0.516,0.516,0,0,0,.553-0.476,0.543,0.543,0,0,0-.01-0.145V207.23c0-.854,1.939-0.543,2.56-2.64a0.526,0.526,0,0,0-.466-0.854l-11.319-1.865a0.6,0.6,0,0,0-.69.49,0.646,0.646,0,0,0-.008.132v43.87a0.572,0.572,0,0,1-.517.622,0.59,0.59,0,0,1-.1,0H686.55a0.572,0.572,0,0,1-.62-0.518,0.452,0.452,0,0,1,0-.1v-54.2c0-.854,2.249-0.7,2.869-3.339a0.6,0.6,0,0,0-.391-0.75,0.664,0.664,0,0,0-.153-0.027l-11.786-1.863c-0.544-.078-0.775.078-0.775,0.621v59.555a0.573,0.573,0,0,1-.518.622,0.591,0.591,0,0,1-.1,0H661.04a0.572,0.572,0,0,1-.621-0.518,0.6,0.6,0,0,1,0-.1V207.7c0-.853,2.174-0.7,2.792-2.718a0.527,0.527,0,0,0-.466-0.854l-11.4-1.708a0.58,0.58,0,0,0-.686.449,0.747,0.747,0,0,0-.012.095v51.092a0.591,0.591,0,0,0,.544.621,13.057,13.057,0,0,0,8.916-2.329c0.852-.622-0.466-4.194.93-4.194h40.166a0.573,0.573,0,0,1,.621.519,0.591,0.591,0,0,1,0,.1V253.9a0.468,0.468,0,0,0,.31.544M589.314,195.659a0.61,0.61,0,0,1,.544.933c-5.351,8.155-12.562,13.821-20.393,19.489a0.621,0.621,0,0,0,.544,1.088c9.382-2.485,18.221-6.678,25.355-13.433a0.6,0.6,0,0,1,1.008.466v12.734c0,0.932,1.4.621,1.938,0.621,2.25-.233,5.041-0.544,6.9-2.018a0.473,0.473,0,0,0,.232-0.467V195.659a1.02,1.02,0,0,1,1.009.311,36.422,36.422,0,0,0,20.082,18.4c3.024,1.242.931,0.7,5.274-5.125a25.12,25.12,0,0,1,2.869-3.262,0.636,0.636,0,0,0-.388-1.087c-8.761-.855-18.764-3.184-25.355-8.155a0.589,0.589,0,0,1,.31-1.088h23.572c0.388-.543.466-1.242-0.387-1.242H606.064a0.572,0.572,0,0,1-.621-0.517,0.6,0.6,0,0,1,0-.1c0-6.134-.465-4.659,1.474-5.513,1.163-.466,1.783-2.175.775-2.408l-10.547-1.863c-0.543-.077-0.775.078-0.775,0.621V193.8a0.571,0.571,0,0,1-.515.621,0.614,0.614,0,0,1-.105,0h-25.9c-0.853,0-.7.7-0.387,1.242h19.849Zm15.044,31.061c0.544,0,2.481-.311,2.094.854-2.559,8-7.6,14.752-12.95,21.042a0.61,0.61,0,0,0,.776.932A56.51,56.51,0,0,0,609.4,237.435a0.686,0.686,0,0,1,1.163.388v18.4c0,0.854,1.163.62,1.783,0.543,2.249-.232,4.807-0.776,6.591-2.329a0.675,0.675,0,0,0,.233-0.466V226.72a0.619,0.619,0,0,1,.7.529s0,0.01,0,.014c1.007,6.989,3.334,15.375,7.676,20.344,0.544,0.543,1.939,2.64,2.637,1.553A20.39,20.39,0,0,1,637,241.939a0.566,0.566,0,0,0,0-1.087c-6.746-3.184-12.1-7.3-15.741-13.2a0.562,0.562,0,0,1,.465-0.932H635.14c0.775,0,1.24-1.553.232-1.553H619.788a0.571,0.571,0,0,1-.62-0.518,0.591,0.591,0,0,1,0-.1c0-6.678-.233-3.727,1.631-5.591,0.233-.388,1.473-1.786.233-2.019l-9.77-1.785a0.521,0.521,0,0,0-.7.62v8.775a0.571,0.571,0,0,1-.517.621,0.6,0.6,0,0,1-.1,0H604.2c-1.008,0-.621,1.553.155,1.553m-27.914,0a0.593,0.593,0,0,1,.62.854c-2.559,7.455-6.746,14.365-11.4,20.887a0.625,0.625,0,0,0,.776.932,51.417,51.417,0,0,0,12.1-10.016,0.6,0.6,0,0,1,1.087.388v16.073c0,0.854,1.241.544,1.784,0.544,2.4-.233,5.195-0.7,6.978-2.485a0.59,0.59,0,0,0,.155-0.389V227.342a0.572,0.572,0,0,1,.515-0.622,0.625,0.625,0,0,1,.106,0H601.72c0.775,0,1.241-1.553.233-1.553H589.16a0.57,0.57,0,0,1-.62-0.517,0.516,0.516,0,0,1,0-.1c0-6.367-.466-3.806,1.861-5.513,0.465-.233,1.473-1.708.387-1.864l-10.468-2.018a0.626,0.626,0,0,0-.693.552,0.527,0.527,0,0,0,0,.068v8.775a0.572,0.572,0,0,1-.517.621,0.6,0.6,0,0,1-.1,0H567.6c-0.93,0-.619,1.553.234,1.553h8.607Zm17.911,15.374c6.979-2.64,5.428-8.385-1.4-10.873-0.543-.234-3.1-1.088-3.566-0.466a0.587,0.587,0,0,0-.079.621,67.052,67.052,0,0,1,4.266,10.329,0.554,0.554,0,0,0,.656.428,0.614,0.614,0,0,0,.119-0.039m87.62,34.53h0a0.57,0.57,0,0,1,.62.516,0.614,0.614,0,0,1,0,.1l0.078,6.988a0.573,0.573,0,0,1-.518.622,0.591,0.591,0,0,1-.1,0c-4.963,0-1.631.154-5.737-1.087-0.776-.156-5.584-1.553-6.126-1.01a0.671,0.671,0,0,0-.233.466V319.1c0,0.932,1.4.7,2.016,0.7,1.008,0,6.9-.465,6.9-1.862,0-.855-0.31-2.485.62-2.485h19.152c1.164,0,.233,2.174.853,2.794,1.939,1.476,5.818,1.787,8.142,1.553a0.517,0.517,0,0,0,.554-0.477,0.538,0.538,0,0,0-.01-0.144V283.458c0-.544-0.233-0.7-0.775-0.621-1.088.232-7.754,2.019-8.22,2.019h-13.57a0.63,0.63,0,0,1-.388-1.087l7.522-6.989a0.587,0.587,0,0,1,.387-0.155h20.7c0.233-.544.466-1.243-0.387-1.243H693.758a0.629,0.629,0,0,1-.387-1.087l8.607-7.611c0.232-.233,2.4-0.466,2.171-1.553a0.6,0.6,0,0,0-.388-0.467l-9.692-3.181a0.527,0.527,0,0,0-.74.079,0.521,0.521,0,0,0-.113.387l-2.637,12.968a0.589,0.589,0,0,1-.62.465h-6.436a0.6,0.6,0,0,1-.465-1.009c2.094-2.1,3.49-5.98,1.088-8.231s-6.436-3.106-9.616-3.649a0.606,0.606,0,0,0-.619.931c1.631,3.417,3.024,7.454,4.5,11.1,0.234,0.543-.077.854-0.619,0.854H666.855c-0.853,0-.621.7-0.388,1.242h15.508Zm17.289,29.664v7.453a0.571,0.571,0,0,1-.517.621,0.6,0.6,0,0,1-.1,0H679.491a0.57,0.57,0,0,1-.62-0.516,0.614,0.614,0,0,1,0-.105v-7.454a0.571,0.571,0,0,1,.516-0.622,0.6,0.6,0,0,1,.1,0h19.152a0.571,0.571,0,0,1,.621.518A0.452,0.452,0,0,1,699.264,306.288Zm-20.393-2.305a0.6,0.6,0,0,1,0-.1v-7.531a0.516,0.516,0,0,1,.477-0.553,0.49,0.49,0,0,1,.143.009h19.152a0.519,0.519,0,0,1,.612.4,0.486,0.486,0,0,1,.009.142v7.531a0.572,0.572,0,0,1-.518.622,0.59,0.59,0,0,1-.1,0H679.491A0.572,0.572,0,0,1,678.871,303.983Zm19.772-17.733v0a0.571,0.571,0,0,1,.621.518,0.557,0.557,0,0,1,0,.1v7.068a0.571,0.571,0,0,1-.516.621,0.614,0.614,0,0,1-.105,0H679.491a0.571,0.571,0,0,1-.62-0.516,0.614,0.614,0,0,1,0-.105v-7.068a0.572,0.572,0,0,1,.516-0.622,0.6,0.6,0,0,1,.1,0h19.152Zm16.111,35.464a0.621,0.621,0,0,0-.446-0.134c-11.321,1.009-32.877,3.106-43.19,1.476-3.412-.544-6.281-1.553-8.685-3.961a0.656,0.656,0,0,1-.154-0.465V293.4a0.646,0.646,0,0,0-.853-0.622l-8.376,2.253v0.078h-8.141c-0.853,0-.7.7-0.389,1.243h7.91a0.571,0.571,0,0,1,.62.516,0.452,0.452,0,0,1,0,.1v21.817a0.468,0.468,0,0,1-.31.544l-8.916,3.728c-0.387.232-.544,0.464-0.309,0.853l5.97,9.786a0.619,0.619,0,0,0,.849.214,0.611,0.611,0,0,0,.159-0.136l8.141-12.036c0.853-1.009,2.482-1.475,3.18-.155,4.5,9.007,14.112,11.259,23.572,11.647a235.051,235.051,0,0,0,25.356-.854,0.575,0.575,0,0,0,.543-0.544,21.707,21.707,0,0,1,3.567-9.243A0.622,0.622,0,0,0,714.754,321.714Zm-57.827-39.343c10-3.338,11.091-15.063-7.909-17.936a0.632,0.632,0,0,0-.621.932c3.18,5.2,5.506,11.1,7.755,16.617a0.578,0.578,0,0,0,.709.409,0.464,0.464,0,0,0,.066-0.022m-65.289-19.645a177.486,177.486,0,0,1,.156,20.266,0.572,0.572,0,0,1-.621.618h-25.59c-0.93,0-.7,1.476.155,1.476h25.2a0.521,0.521,0,0,1,.641.362,0.526,0.526,0,0,1-.019.337c-1.861,20.887-9.77,33.777-25.588,46.744a0.631,0.631,0,0,0,.62,1.087c17.6-7.068,29.31-15.607,34.04-34.864a85.837,85.837,0,0,0,1.939-13.045,0.7,0.7,0,0,1,1.4,0c0.619,13.744,4.652,28.5,12.25,39.6a39.787,39.787,0,0,0,6.667,7.535,0.608,0.608,0,0,0,.853-0.077,124.338,124.338,0,0,1,11.555-10.718,0.7,0.7,0,0,0-.155-1.087c-14.887-7.068-24.5-19.952-30.24-35.019a0.592,0.592,0,0,1,.62-0.854h28.07c0.852,0,1.163-1.476.154-1.476H603.347a0.6,0.6,0,0,1-.628-0.567,0.574,0.574,0,0,1,.008-0.131,140.336,140.336,0,0,0,.077-15.142c0-1.01,2.171-.466,3.257-3.184,0.233-.543.077-0.776-0.465-0.776l-13.259-1.784a0.654,0.654,0,0,0-.7.6,0.769,0.769,0,0,0,0,.1" transform="translate(-565 -184)"/>
</svg>
