<?xml version="1.0" encoding="utf-8"?>
<!-- Generator: Adobe Illustrator 22.0.1, SVG Export Plug-In . SVG Version: 6.00 Build 0)  -->
<svg version="1.0" id="Layer_1" xmlns="http://www.w3.org/2000/svg" xmlns:xlink="http://www.w3.org/1999/xlink" x="0px" y="0px"
	 viewBox="0 0 220 133.2" style="enable-background:new 0 0 220 133.2;" xml:space="preserve">
<style type="text/css">
	.st0{fill:#FFFFFF;}
</style>
<g>
	<path class="st0" d="M215.1,129c-2.1,0-3.4-1.1-3.4-2.4v0c0-1.5,1.5-2.5,3.4-2.5s3.4,1,3.4,2.5v0C218.5,127.9,217.2,129,215.1,129
		 M215.1,122.9c-1.7,0-3-1-3-2.4v0c0-1.3,1.3-2.3,3-2.3c1.7,0,3,1,3,2.3v0C218.1,121.9,216.8,122.9,215.1,122.9 M215.1,130.3
		c2.8,0,4.9-1.5,4.9-3.7v0c0-1.5-1.1-2.6-2.7-3.2c1.2-0.6,2.2-1.5,2.2-3v0c0-2-2.1-3.4-4.4-3.4c-2.4,0-4.4,1.4-4.4,3.4v0
		c0,1.5,1,2.4,2.2,3c-1.6,0.6-2.7,1.7-2.7,3.2v0C210.2,128.8,212.3,130.3,215.1,130.3 M205.2,129.5c0,0.4,0.3,0.7,0.7,0.7
		c0.4,0,0.7-0.3,0.7-0.7v-11.8c0-0.4-0.3-0.7-0.7-0.7h0c-0.2,0-0.5,0.1-0.8,0.2l-2.1,0.7c-0.3,0.1-0.5,0.3-0.5,0.6
		c0,0.4,0.3,0.6,0.6,0.6c0.1,0,0.2,0,0.3-0.1l1.8-0.6V129.5z M194.6,129c-2.4,0-4-2.6-4-5.4v0c0-2.9,1.5-5.4,4-5.4
		c2.4,0,4,2.6,4,5.4v0C198.5,126.5,197,129,194.6,129 M194.5,130.4c3.4,0,5.5-3.1,5.5-6.7v0c0-3.6-2.1-6.7-5.5-6.7s-5.5,3.1-5.5,6.7
		v0C189,127.3,191.1,130.4,194.5,130.4 M176.8,129.4c0,0.4,0.3,0.7,0.7,0.7h7.8c0.4,0,0.7-0.3,0.7-0.7c0-0.4-0.3-0.7-0.7-0.7h-6.3
		l3.5-3.1c2.3-2,3.3-3.2,3.3-5.1v0c0-2.1-1.7-3.7-4-3.7c-2.1,0-3.3,0.9-4.4,2.4c-0.1,0.1-0.1,0.3-0.1,0.4c0,0.4,0.3,0.7,0.7,0.7
		c0.2,0,0.4-0.1,0.5-0.3c0.9-1.2,1.9-1.9,3.2-1.9c1.4,0,2.6,1,2.6,2.5c0,1.3-0.7,2.3-2.7,4.1l-4.4,3.9
		C176.9,129,176.8,129.2,176.8,129.4 M165.2,132c0,0.2,0.1,0.4,0.4,0.4c0.3,0,0.9-0.3,1.3-0.7c0.4-0.4,0.7-1.1,0.7-2.2v-0.4
		c0-0.6-0.4-1-0.9-1c-0.5,0-0.9,0.4-0.9,0.9v0.3c0,0.5,0.3,0.8,0.7,0.9c0,0.7-0.3,1.2-1,1.5C165.3,131.7,165.2,131.8,165.2,132
		 M153.7,125.8l5.5-6.7v6.7H153.7z M159.1,129.5c0,0.4,0.3,0.7,0.7,0.7c0.4,0,0.7-0.3,0.7-0.7V127h1.5c0.3,0,0.6-0.3,0.6-0.6
		c0-0.4-0.3-0.6-0.6-0.6h-1.5v-8.1c0-0.4-0.3-0.8-0.8-0.8c-0.4,0-0.6,0.2-0.8,0.4l-6.8,8.3c-0.2,0.2-0.3,0.4-0.3,0.7
		c0,0.4,0.3,0.7,0.7,0.7h6.5V129.5z M147,129.5c0,0.4,0.3,0.7,0.7,0.7c0.4,0,0.7-0.3,0.7-0.7v-11.8c0-0.4-0.3-0.7-0.7-0.7h0
		c-0.2,0-0.5,0.1-0.8,0.2l-2.1,0.7c-0.3,0.1-0.5,0.3-0.5,0.6c0,0.4,0.3,0.6,0.6,0.6c0.1,0,0.2,0,0.3-0.1l1.8-0.6V129.5z
		 M133.9,130.3c0.6,0,1-0.1,1.4-0.3c0.2-0.1,0.4-0.3,0.4-0.6c0-0.3-0.3-0.6-0.6-0.6c-0.1,0-0.4,0.1-0.9,0.1c-1,0-1.6-0.4-1.6-1.6
		v-5.6h2.5c0.4,0,0.7-0.3,0.7-0.6c0-0.3-0.3-0.6-0.7-0.6h-2.5v-2.3c0-0.4-0.3-0.7-0.7-0.7c-0.4,0-0.7,0.3-0.7,0.7v2.3h-0.8
		c-0.3,0-0.6,0.3-0.6,0.6c0,0.3,0.3,0.6,0.6,0.6h0.8v5.8C131.2,129.5,132.4,130.3,133.9,130.3 M122.4,129c-1.8,0-3.5-1.5-3.5-3.7v0
		c0-2.2,1.7-3.7,3.5-3.7c1.8,0,3.4,1.5,3.4,3.7v0C125.8,127.7,124.3,129,122.4,129 M117.6,132.5c0,0.4,0.3,0.7,0.7,0.7
		c0.4,0,0.7-0.3,0.7-0.7v-4.2c0.7,1.1,1.9,2,3.7,2c2.3,0,4.6-1.9,4.6-5v0c0-3.2-2.3-5-4.6-5c-1.8,0-2.9,1-3.7,2.1v-1.3
		c0-0.4-0.3-0.7-0.7-0.7c-0.4,0-0.7,0.3-0.7,0.7V132.5z M113.7,128.9c0.1-0.1,0.2-0.3,0.2-0.5c0-0.3-0.3-0.6-0.6-0.6
		c-0.2,0-0.3,0.1-0.4,0.2c-0.7,0.7-1.6,1.1-2.8,1.1c-1.7,0-3.2-1.2-3.4-3.3h7c0.4,0,0.7-0.3,0.7-0.7c0-2.6-1.6-4.9-4.5-4.9
		c-2.7,0-4.6,2.2-4.6,5v0c0,3,2.2,5,4.8,5C111.7,130.4,112.7,129.8,113.7,128.9 M106.7,124.8c0.2-1.9,1.5-3.3,3.1-3.3
		c1.9,0,2.9,1.5,3.1,3.3H106.7z M97.9,130.3c2.6,0,4.4-1.5,4.4-3.7v0c0-2-1.3-3.1-4.2-3.7c-2.9-0.6-3.5-1.3-3.5-2.5v0
		c0-1.2,1.1-2.1,2.8-2.1c1.2,0,2.3,0.3,3.4,1.1c0.1,0.1,0.3,0.1,0.4,0.1c0.4,0,0.7-0.3,0.7-0.7c0-0.3-0.2-0.5-0.3-0.6
		c-1.2-0.9-2.4-1.3-4.2-1.3c-2.5,0-4.3,1.5-4.3,3.6v0c0,2.1,1.4,3.1,4.4,3.8c2.7,0.6,3.4,1.3,3.4,2.5v0c0,1.3-1.2,2.2-2.9,2.2
		c-1.7,0-2.9-0.5-4.1-1.5c-0.1-0.1-0.3-0.2-0.4-0.2c-0.4,0-0.7,0.3-0.7,0.7c0,0.2,0.1,0.4,0.3,0.6C94.4,129.7,96,130.3,97.9,130.3
		 M76.5,125.3h6.2c0.4,0,0.7-0.3,0.7-0.7c0-0.4-0.3-0.7-0.7-0.7h-6.2c-0.4,0-0.7,0.3-0.7,0.7C75.8,124.9,76.1,125.3,76.5,125.3
		 M62,130.4c2.4,0,4.4-1.6,4.4-3.9v0c0-2.4-2-3.5-4.3-3.7l3.8-4.3c0.2-0.2,0.4-0.4,0.4-0.7c0-0.4-0.3-0.6-0.7-0.6h-7.1
		c-0.4,0-0.7,0.3-0.7,0.7c0,0.4,0.3,0.7,0.7,0.7h5.8l-3.8,4.3c-0.2,0.2-0.3,0.4-0.3,0.6c0,0.4,0.3,0.6,0.7,0.6h0.5
		c2.1,0,3.6,0.9,3.6,2.5v0c0,1.5-1.3,2.5-2.8,2.5c-1.5,0-2.6-0.6-3.5-1.7c-0.1-0.1-0.3-0.2-0.5-0.2c-0.4,0-0.7,0.3-0.7,0.7
		c0,0.2,0.1,0.4,0.2,0.5C58.5,129.6,60,130.4,62,130.4 M45.1,129.4c0,0.4,0.3,0.7,0.7,0.7h7.8c0.4,0,0.7-0.3,0.7-0.7
		c0-0.4-0.3-0.7-0.7-0.7h-6.3l3.5-3.1c2.3-2,3.3-3.2,3.3-5.1v0c0-2.1-1.7-3.7-4-3.7c-2.1,0-3.3,0.9-4.4,2.4
		c-0.1,0.1-0.1,0.3-0.1,0.4c0,0.4,0.3,0.7,0.7,0.7c0.2,0,0.4-0.1,0.5-0.3c0.9-1.2,1.9-1.9,3.2-1.9c1.4,0,2.6,1,2.6,2.5
		c0,1.3-0.7,2.3-2.7,4.1l-4.4,3.9C45.2,129,45.1,129.2,45.1,129.4 M29.3,133.2c1.5,0,2.4-0.7,3.2-2.7l3.8-9c0-0.1,0.1-0.2,0.1-0.4
		c0-0.4-0.3-0.7-0.7-0.7c-0.4,0-0.6,0.2-0.7,0.5l-3,7.6l-3.4-7.6c-0.1-0.3-0.3-0.6-0.7-0.6c-0.4,0-0.7,0.3-0.7,0.7
		c0,0.1,0,0.3,0.1,0.4l4,8.5l-0.1,0.1c-0.5,1.2-1,1.7-1.9,1.7c-0.5,0-0.8-0.1-1-0.2c-0.1,0-0.2-0.1-0.4-0.1c-0.3,0-0.6,0.3-0.6,0.6
		c0,0.3,0.2,0.5,0.4,0.6C28.2,133.1,28.6,133.2,29.3,133.2 M19.8,129.2c-1.3,0-2.4-0.7-2.4-1.9v0c0-1.2,1-2,2.8-2
		c1.2,0,2.1,0.2,2.8,0.4v0.9C23,128.1,21.6,129.2,19.8,129.2 M19.5,130.3c1.7,0,2.8-0.8,3.5-1.7v0.9c0,0.4,0.3,0.7,0.7,0.7
		c0.4,0,0.7-0.3,0.7-0.7v-5.3c0-1.2-0.3-2.2-1-2.8c-0.7-0.7-1.8-1.1-3.1-1.1c-1.2,0-2.2,0.2-3.1,0.7c-0.2,0.1-0.4,0.3-0.4,0.6
		c0,0.3,0.3,0.6,0.6,0.6c0.1,0,0.2,0,0.3-0.1c0.7-0.3,1.5-0.5,2.5-0.5c1.8,0,2.9,0.9,2.9,2.6v0.3c-0.9-0.2-1.7-0.4-3-0.4
		c-2.4,0-4.1,1.1-4.1,3.1v0C15.9,129.3,17.7,130.3,19.5,130.3 M0,129.5c0,0.4,0.3,0.7,0.7,0.7c0.4,0,0.7-0.3,0.7-0.7v-9.7l4.2,6.1
		c0.2,0.2,0.4,0.4,0.6,0.4c0.3,0,0.4-0.1,0.6-0.4l4.2-6.1v9.7c0,0.4,0.3,0.7,0.7,0.7c0.4,0,0.7-0.3,0.7-0.7v-11.7
		c0-0.4-0.3-0.7-0.7-0.7h-0.2c-0.3,0-0.5,0.1-0.7,0.4l-4.7,7l-4.7-7c-0.1-0.2-0.4-0.4-0.7-0.4H0.7c-0.4,0-0.7,0.3-0.7,0.7V129.5z"/>
	<path class="st0" d="M118.7,75.6c-4,0-6.9-3.3-6.9-7.2v-0.1c0-3.9,2.7-7.2,6.8-7.2c4.1,0,6.9,3.3,6.9,7.3v0.1
		C125.5,72.3,122.9,75.6,118.7,75.6 M118.6,80.1c7,0,12.1-5.4,12.1-11.8v-0.1c0-6.5-5.1-11.7-12-11.7s-12.1,5.4-12.1,11.8v0.1
		C106.6,74.9,111.7,80.1,118.6,80.1 M88,61c3.5,0,6.6,2.9,6.6,7.2v0.1c0,4.3-3.1,7.2-6.6,7.2c-3.5,0-6.5-2.9-6.5-7.2v-0.1
		C81.5,63.8,84.4,61,88,61 M99.6,50.7c0-1.5-1.2-2.6-2.6-2.6c-1.4,0-2.6,1.1-2.6,2.6v9.8c-1.6-2.1-4-4-7.7-4
		c-5.4,0-10.5,4.2-10.5,11.7v0.1c0,7.5,5.2,11.7,10.5,11.7c3.7,0,6-1.9,7.7-4.2v1.4c0,1.5,1.2,2.6,2.6,2.6c1.4,0,2.6-1.1,2.6-2.6
		V50.7z M63.8,77.3c0,1.5,1.2,2.6,2.6,2.6c1.5,0,2.6-1.1,2.6-2.6V59.4c0-1.5-1.2-2.6-2.6-2.6c-1.5,0-2.6,1.2-2.6,2.6V77.3z
		 M63.4,51.2c0,1.5,1.3,2.6,3,2.6s3-1,3-2.6v-0.3c0-1.5-1.3-2.5-3-2.5s-3,1-3,2.5V51.2z M44.6,76.3c-2.5,0-4.4-1.2-4.4-3.4v-0.1
		c0-2.4,2-3.8,5.3-3.8c2.1,0,3.8,0.4,5.1,0.9v1.5C50.6,74.4,48,76.3,44.6,76.3 M43.1,80.1c3.5,0,5.8-1.5,7.4-3.3v0.9
		c0,1.2,1,2.2,2.5,2.2c1.4,0,2.5-1.1,2.5-2.5V66.2c0-3-0.8-5.4-2.4-7c-1.6-1.6-4.1-2.5-7.5-2.5c-3,0-5.1,0.5-7.3,1.3
		c-0.8,0.3-1.4,1.1-1.4,2.1c0,1.2,1,2.1,2.2,2.1c0.3,0,0.5,0,0.8-0.1c1.4-0.6,3-0.9,5-0.9c3.6,0,5.6,1.7,5.6,4.9v0.6
		c-1.8-0.6-3.6-0.9-6.1-0.9c-5.5,0-9.3,2.4-9.3,7.3v0.1C35.1,77.7,38.9,80.1,43.1,80.1 M7.3,74.8V54.4h5.9c6.3,0,10.4,4.3,10.4,10.2
		v0.1c0,5.9-4.1,10.1-10.4,10.1H7.3z M2,77c0,1.5,1.2,2.7,2.7,2.7h8.5c9.4,0,15.9-6.6,15.9-15v-0.1c0-8.4-6.5-14.9-15.9-14.9H4.7
		c-1.5,0-2.7,1.2-2.7,2.7V77z"/>
	<path class="st0" d="M206.9,27.9c-2.5,0-4.4-1.2-4.4-3.4v-0.1c0-2.4,2-3.8,5.3-3.8c2.1,0,3.8,0.4,5.1,0.9v1.5
		C212.9,25.9,210.3,27.9,206.9,27.9 M205.4,31.7c3.5,0,5.8-1.5,7.4-3.3v0.9c0,1.2,1,2.2,2.5,2.2c1.4,0,2.5-1.1,2.5-2.5V17.8
		c0-3-0.8-5.4-2.4-7c-1.6-1.6-4.1-2.5-7.5-2.5c-3,0-5.1,0.5-7.3,1.3c-0.8,0.3-1.4,1.1-1.4,2.1c0,1.2,1,2.1,2.2,2.1
		c0.3,0,0.5,0,0.8-0.1c1.4-0.6,3-0.9,5-0.9c3.6,0,5.6,1.7,5.6,4.9v0.6c-1.8-0.6-3.6-0.9-6.1-0.9c-5.5,0-9.3,2.4-9.3,7.3v0.1
		C197.4,29.2,201.2,31.7,205.4,31.7 M156.5,28.9c0,1.5,1.2,2.6,2.6,2.6c1.5,0,2.6-1.1,2.6-2.6V18.5c0-3.5,2-5.6,4.8-5.6
		s4.6,2,4.6,5.5v10.5c0,1.5,1.2,2.6,2.6,2.6c1.4,0,2.6-1.1,2.6-2.6V18.5c0-3.6,2-5.6,4.8-5.6c2.9,0,4.6,1.9,4.6,5.5v10.5
		c0,1.5,1.2,2.6,2.6,2.6s2.6-1.1,2.6-2.6V16.8c0-5.5-3-8.6-7.9-8.6c-3.4,0-5.8,1.6-7.6,4c-1.2-2.4-3.5-4-6.8-4
		c-3.5,0-5.4,1.9-6.9,3.9V11c0-1.5-1.2-2.6-2.6-2.6s-2.6,1.2-2.6,2.6V28.9z M137.7,27.9c-2.5,0-4.4-1.2-4.4-3.4v-0.1
		c0-2.4,2-3.8,5.3-3.8c2.1,0,3.8,0.4,5.1,0.9v1.5C143.7,25.9,141.1,27.9,137.7,27.9 M136.2,31.7c3.5,0,5.8-1.5,7.4-3.3v0.9
		c0,1.2,1,2.2,2.5,2.2c1.4,0,2.5-1.1,2.5-2.5V17.8c0-3-0.8-5.4-2.4-7c-1.6-1.6-4.1-2.5-7.5-2.5c-3,0-5.1,0.5-7.3,1.3
		c-0.8,0.3-1.4,1.1-1.4,2.1c0,1.2,1,2.1,2.2,2.1c0.3,0,0.5,0,0.8-0.1c1.4-0.6,3-0.9,5-0.9c3.6,0,5.6,1.7,5.6,4.9v0.6
		c-1.8-0.6-3.6-0.9-6.1-0.9c-5.5,0-9.3,2.4-9.3,7.3v0.1C128.2,29.2,132,31.7,136.2,31.7 M107.6,38.2c3.6,0,5.7-1.7,7.6-6.3l8.3-19.8
		c0.1-0.3,0.2-0.8,0.2-1.2c0-1.4-1.1-2.4-2.5-2.4c-1.3,0-2.1,0.9-2.5,2l-5.7,15l-6.1-15c-0.5-1.2-1.2-2-2.5-2
		c-1.5,0-2.6,1.1-2.6,2.5c0,0.3,0.1,0.9,0.3,1.2l8.4,18.8l-0.2,0.5c-0.9,1.8-1.7,2.4-3.2,2.4c-0.7,0-1.2-0.1-1.8-0.3
		c-0.3-0.1-0.5-0.2-0.9-0.2c-1.1,0-2.1,0.9-2.1,2.1c0,1.2,0.9,1.9,1.6,2.1C105.1,38,106.1,38.2,107.6,38.2 M89.8,28.9
		c0,1.5,1.2,2.6,2.6,2.6c1.5,0,2.6-1.1,2.6-2.6V11c0-1.5-1.2-2.6-2.6-2.6s-2.6,1.2-2.6,2.6V28.9z M89.4,2.8c0,1.5,1.3,2.6,3,2.6
		c1.7,0,3-1,3-2.6V2.5c0-1.5-1.3-2.5-3-2.5c-1.7,0-3,1-3,2.5V2.8z M70.1,28.9c0,1.5,1.2,2.6,2.6,2.6c1.5,0,2.6-1.2,2.6-2.6v-6.7
		c0-5.4,2.5-8.2,6.2-8.8c1.2-0.2,2.1-1.1,2.1-2.5c0-1.5-0.9-2.6-2.6-2.6c-2.3,0-4.5,2.1-5.7,5V11c0-1.5-1.2-2.6-2.6-2.6
		s-2.6,1.2-2.6,2.6V28.9z M51.1,27.2c-4,0-6.9-3.3-6.9-7.2v-0.1c0-3.9,2.7-7.2,6.8-7.2c4.1,0,6.9,3.3,6.9,7.3V20
		C58,23.9,55.3,27.2,51.1,27.2 M51,31.7c7,0,12.1-5.4,12.1-11.8v-0.1c0-6.5-5.1-11.7-12-11.7S39.1,13.5,39.1,20V20
		C39.1,26.5,44.1,31.7,51,31.7 M2,28.9c0,1.5,1.1,2.6,2.6,2.6s2.6-1.1,2.6-2.6V10.9l7.3,10.9c0.6,0.9,1.2,1.4,2.2,1.4
		c1,0,1.7-0.5,2.2-1.4l7.3-11v18c0,1.4,1.2,2.6,2.6,2.6c1.5,0,2.7-1.2,2.7-2.6V3.7c0-1.5-1.2-2.7-2.7-2.7h-0.6
		c-1.1,0-1.8,0.5-2.4,1.4l-9.1,14.3L7.7,2.5C7.1,1.7,6.4,1.1,5.2,1.1H4.7C3.2,1.1,2,2.3,2,3.7V28.9z"/>
</g>
</svg>
