<svg xmlns="http://www.w3.org/2000/svg" width="224" height="25" viewBox="0 0 224 25">
  <defs>
    <style>
      .cls-1 {
        fill: #fff;
        fill-rule: evenodd;
      }
    </style>
  </defs>
  <path id="Whitechapel_Logo" data-name="Whitechapel Logo" class="cls-1" d="M911.03,792.554c-3.507,0-7.013.014-10.52,0a1.816,1.816,0,0,1-1.444-1.207,1.259,1.259,0,0,0-.017-0.854l-0.013-.019a1.525,1.525,0,0,0-.972-0.009l0,0c-0.179.355,0.066,0.763-.143,1.114a2.861,2.861,0,0,1-2.744,1c-1.688-.069-3.384-0.076-5.071,0a1.97,1.97,0,0,1-1.931-1.234,1.228,1.228,0,0,0-.019-0.851l-0.014-.02a8.349,8.349,0,0,0-1.1-.117,6,6,0,0,1-1.007-1,1.43,1.43,0,0,1-.043-0.548q0-7.551,0-15.1a0.91,0.91,0,0,1,.077-0.6l-0.008.007a13.688,13.688,0,0,1,3.2-.006l0,0a1.369,1.369,0,0,1,.071.749c0,4.91.013,9.82-.01,14.73a0.586,0.586,0,0,0,.734.727c2.047-.034,4.1-0.013,6.143-0.016a1.274,1.274,0,0,0,.618-0.057l0,0a1.711,1.711,0,0,0,.058-0.752q0.006-4.605.006-9.209a1.441,1.441,0,0,1,.066-0.747h0a25.94,25.94,0,0,1,2.911-.071c0.338-.016.37,0.181,0.368,0.441-0.006.716,0,1.433,0,2.149,0,2.52.013,5.039-.011,7.558,0,0.519.092,0.721,0.677,0.71,2.089-.039,4.179-0.014,6.27-0.016a1.082,1.082,0,0,0,.546-0.057l0,0a1.724,1.724,0,0,0,.056-0.752q0.006-7.316.007-14.628a1.437,1.437,0,0,1,.066-0.749h0a13.844,13.844,0,0,1,3.2.012l-0.009-.009a0.886,0.886,0,0,1,.079.6q0,9.122,0,18.243A0.736,0.736,0,0,1,911.03,792.554Zm136.03-3.192a5.892,5.892,0,0,0-.97.957,10.059,10.059,0,0,1-1.11.151l-0.01,0c-0.18.355,0.07,0.763-.14,1.114a2.858,2.858,0,0,1-2.74,1c-1.69-.069-3.39-0.076-5.07,0a1.976,1.976,0,0,1-1.94-1.234,1.244,1.244,0,0,0-.01-0.851l-0.02-.02a8.4,8.4,0,0,0-1.09-.117,5.67,5.67,0,0,1-1.01-1,2.419,2.419,0,0,1-.04-0.759q-0.015-5.767,0-11.535a2.419,2.419,0,0,1,.04-0.759,2.3,2.3,0,0,1,2.12-1.15,1.216,1.216,0,0,0,.01-0.841,3.613,3.613,0,0,1,1.11-1.237,7.9,7.9,0,0,1,1.46-.04c2.56-.006,5.12.01,7.68-0.013,0.52,0,.76.092,0.71,0.674a15.01,15.01,0,0,0,0,2.012c0.03,0.514-.12.674-0.65,0.669-2.77-.027-5.54-0.013-8.31-0.013-0.83,0-.83,0-0.83.817,0,3.8.01,7.593-.01,11.39,0,0.564.14,0.747,0.72,0.737,2.1-.036,4.19-0.012,6.28-0.016a1.135,1.135,0,0,0,.62-0.066l0.01-.016a24.931,24.931,0,0,0,0-4.144l-0.01-.014c-1.17-.161-2.34-0.021-3.51-0.074a1.546,1.546,0,0,1-.81-0.076l0.01,0.006a10.568,10.568,0,0,1,.03-3.176h7.45a0.332,0.332,0,0,1,.11.371q0.015,3.465,0,6.929A0.418,0.418,0,0,1,1047.06,789.362Zm50.86,1a5.67,5.67,0,0,1-1.01-1,24.161,24.161,0,0,1-.04-2.691q-0.015-3.7,0-7.4a1.255,1.255,0,0,1,.07-0.741v0.006a21.457,21.457,0,0,1,2.98-.074c0.31-.011.29,0.23,0.29,0.439v2.431c0,2.431.02,4.862-.01,7.292-0.01.565,0.16,0.7,0.7,0.687q2.55-.048,5.1,0c0.53,0.01.66-.149,0.65-0.663-0.02-3.125-.01-6.25-0.01-9.376a1.267,1.267,0,0,1,.08-0.744l-0.01.008a21.5,21.5,0,0,1,2.98-.076,0.262,0.262,0,0,1,.3.3c-0.01.115,0,.231,0,0.347v15.137a0.78,0.78,0,0,1-.08.539,4.929,4.929,0,0,0-.97.96c-0.35.218-.76-0.042-1.1,0.156a2.439,2.439,0,0,1-.41,1.337,2.3,2.3,0,0,1-1.88.762c-1.95-.059-3.91-0.016-5.86-0.024-0.23,0-.54.129-0.65-0.23a15.118,15.118,0,0,0,0-2.854v-0.039a0.585,0.585,0,0,1,.63-0.125c2.1-.012,4.21-0.022,6.31,0,0.5,0.006.74-.1,0.67-0.64a9.43,9.43,0,0,0-.08-1.5c-1.86-.009-3.73-0.077-5.58,0a1.989,1.989,0,0,1-1.95-1.236,1.244,1.244,0,0,0-.01-0.851l-0.02-.02A8.4,8.4,0,0,0,1097.92,790.364Zm-172.9,2.2-3.192,0a1.134,1.134,0,0,1-.082-0.74c-0.007-3.123-.016-6.246.006-9.369,0-.5-0.1-0.683-0.645-0.672q-2.579.055-5.159,0c-0.545-.011-0.65.17-0.646,0.671,0.022,3.123.013,6.247,0.007,9.369a1.2,1.2,0,0,1-.079.742h-3.178a0.7,0.7,0,0,1-.084-0.531q0-9.192,0-18.382a0.769,0.769,0,0,1,.077-0.535l-0.007.008a13.626,13.626,0,0,1,3.2-.007l0,0a36.046,36.046,0,0,1,.069,3.944c0.023,1.407,0,1.407,1.422,1.407,1.466,0,2.932,0,4.4,0a1.056,1.056,0,0,1,.677.078,3.806,3.806,0,0,0,.612.635,1.027,1.027,0,0,1,.471.993c-0.006.184-.072,0.514,0.232,0.463,0.972-.161,1.3.733,1.936,1.107,0.067,3.566.022,7.132,0.021,10.7A0.352,0.352,0,0,1,925.023,792.562Zm45.651,0H967.5a0.7,0.7,0,0,1-.084-0.531q0-9.192,0-18.382a0.769,0.769,0,0,1,.077-0.535l-0.008.007a13.7,13.7,0,0,1,3.206-.006l0,0a36.046,36.046,0,0,1,.069,3.944c0.022,1.407,0,1.407,1.422,1.407,1.466,0,2.932,0,4.4,0a1.056,1.056,0,0,1,.677.078,3.806,3.806,0,0,0,.612.635,1.025,1.025,0,0,1,.47.993c0,0.184-.072.514,0.233,0.463,0.972-.161,1.3.733,1.936,1.107,0.067,3.566.022,7.132,0.021,10.7a0.338,0.338,0,0,1-.059.125l-3.191,0a1.14,1.14,0,0,1-.083-0.74c-0.006-3.123-.015-6.246.007-9.369,0-.5-0.1-0.683-0.645-0.672q-2.579.055-5.159,0c-0.545-.011-0.65.17-0.646,0.671,0.022,3.123.013,6.247,0.007,9.369A1.2,1.2,0,0,1,970.674,792.559ZM954.325,781.73a2.333,2.333,0,0,1,2.119-1.154,1.2,1.2,0,0,0,.018-0.837,3.539,3.539,0,0,1,1.106-1.239c2.784-.092,5.568-0.015,8.352-0.043a0.307,0.307,0,0,1,.369.368,25,25,0,0,1-.07,2.9h0a3.326,3.326,0,0,1-1.172.064c-2.255.009-4.511,0.021-6.767-.007-0.52-.007-0.67.127-0.662,0.652q0.047,3.09,0,6.18c-0.007.534,0.119,0.711,0.688,0.7,2.442-.033,4.884,0,7.326-0.025,0.511-.006.713,0.112,0.665,0.649-0.077.871,0.081,1.753-.079,2.624-2.6,0-5.212-.046-7.815.026a2,2,0,0,1-1.941-1.236,1.228,1.228,0,0,0-.019-0.851l-0.014-.02a8.385,8.385,0,0,0-1.1-.117,5.967,5.967,0,0,1-1.007-1C954.252,786.818,954.257,784.274,954.325,781.73Zm-15.214,10.828c-1.532,0-3.067-.057-4.594.028a1.96,1.96,0,0,1-1.935-1.234,1.233,1.233,0,0,0-.019-0.851l-0.014-.02a8.385,8.385,0,0,0-1.1-.117,5.93,5.93,0,0,1-1.007-1,1.675,1.675,0,0,1-.043-0.618c0-4.626.009-9.25-.015-13.875,0-.571.139-0.779,0.726-0.728,0.852,0.075,1.713-.072,2.564.077l0,0a27.5,27.5,0,0,1,.054,3.585c0,0.5.11,0.683,0.649,0.667,1.413-.039,2.828.007,4.241-0.024,0.474-.01.608,0.148,0.576,0.593a21.584,21.584,0,0,1-.086,2.678l0.008-.008a20.17,20.17,0,0,1-2.98.075c-0.651.023-1.3,0.017-1.954,0a0.362,0.362,0,0,0-.446.438c0.011,2.2.016,4.4,0,6.6,0,0.429.184,0.489,0.546,0.485,1.419-.014,2.838.016,4.256-0.017,0.517-.013.713,0.121,0.661,0.654A20.4,20.4,0,0,1,939.111,792.558Zm156.829-13.987a29.813,29.813,0,0,1-.13,3.135,1.008,1.008,0,0,1-.67.081c-2.07.007-4.13,0.019-6.19-.008a0.5,0.5,0,0,0-.62.624c0.02,3.139.01,6.277,0.01,9.416a1.18,1.18,0,0,1-.08.74h-3.18a0.494,0.494,0,0,1-.08-0.391q-0.015-5.084-.01-10.166a0.637,0.637,0,0,1,.05-0.271,2.336,2.336,0,0,1,2.12-1.154,1.205,1.205,0,0,0,.01-0.837,3.644,3.644,0,0,1,1.11-1.241c2.5-.084,4.99-0.023,7.49-0.034A0.247,0.247,0,0,1,1095.94,778.571Zm-30.44,13.988h-3.18a0.712,0.712,0,0,1-.09-0.531V773.645a0.77,0.77,0,0,1,.08-0.535l-0.01.007a13.731,13.731,0,0,1,3.21-.006v0a1.057,1.057,0,0,1,.07.608v18.24A0.9,0.9,0,0,1,1065.5,792.559Zm-38.41,0h-3.18a0.708,0.708,0,0,1-.08-0.531V773.645a0.77,0.77,0,0,1,.08-0.535l-0.01.007a13.647,13.647,0,0,1,3.2-.006v0a0.98,0.98,0,0,1,.07.608q0.015,9.12,0,18.24A0.846,0.846,0,0,1,1027.09,792.559Zm42.73,0h-3.17a0.712,0.712,0,0,1-.09-0.531V773.645a0.77,0.77,0,0,1,.08-0.535l-0.01.007a13.731,13.731,0,0,1,3.21-.006l-0.01,0a0.984,0.984,0,0,1,.08.608q0,9.12-.01,18.24A0.846,0.846,0,0,1,1069.82,792.559Zm-140.483,0H926.16a0.583,0.583,0,0,1-.085-0.462q0-6.55,0-13.1a0.65,0.65,0,0,1,.077-0.466l-0.007.006a21.975,21.975,0,0,1,2.981-.074,0.256,0.256,0,0,1,.293.3c0,0.115,0,.231,0,0.347q0,6.457,0,12.916A0.73,0.73,0,0,1,929.337,792.559Zm79.373-10.82c-0.64-.374-0.96-1.268-1.94-1.107-0.3.051-.23-0.279-0.23-0.463a1.028,1.028,0,0,0-.47-0.993,3.756,3.756,0,0,1-.61-0.635c-2.19-.16-4.37-0.084-6.556-0.041a3.539,3.539,0,0,0-1.106,1.239,1.2,1.2,0,0,1-.018.837,2.333,2.333,0,0,0-2.119,1.154,0.915,0.915,0,0,0-.042.341q0,7.723,0,15.447a0.544,0.544,0,0,0,.09.459l3.172,0a2.454,2.454,0,0,0,.079-1.077c0.054-1.436-.086-2.876.077-4.309,1.761-.011,3.521-0.068,5.281-0.008a2.339,2.339,0,0,0,1.87-.774,2.4,2.4,0,0,0,.4-1.332c0.35-.2.76,0.058,1.1-0.154a4.605,4.605,0,0,1,.98-0.961,0.417,0.417,0,0,0,.07-0.189C1008.73,786.7,1008.78,784.217,1008.71,781.739Zm-3.77,7.616c-1.85-.016-3.71-0.015-5.568,0a0.39,0.39,0,0,1-.473-0.482c0.017-1.132.006-2.265,0.006-3.4,0-1.063.014-2.126-.007-3.189-0.008-.392.06-0.577,0.524-0.571,1.858,0.027,3.718.02,5.568,0a0.391,0.391,0,0,1,.48.476q-0.03,3.327,0,6.656A0.422,0.422,0,0,1,1004.94,789.355Zm-10.334-7.616c-0.639-.374-0.964-1.268-1.936-1.107-0.3.051-.238-0.279-0.233-0.463a1.027,1.027,0,0,0-.47-0.993,3.812,3.812,0,0,1-.613-0.635,0.45,0.45,0,0,0-.328-0.081q-3.49,0-6.982,0c-0.128,0-.289-0.056-0.353.131l0,0.037a16.441,16.441,0,0,1,0,2.993l0,0.031a0.569,0.569,0,0,0,.629.13c1.837,0.012,3.674.007,5.511,0.007,1.47,0,1.447,0,1.471,1.436,0.009,0.512-.119.676-0.654,0.666-1.767-.035-3.534-0.023-5.3-0.009a23.915,23.915,0,0,0-2.782.048l-1,.992a40.308,40.308,0,0,0-.01,4.438,6,6,0,0,0,1.006,1,8.382,8.382,0,0,1,1.1.117l0.014,0.02a1.233,1.233,0,0,1,.018.851,2.008,2.008,0,0,0,1.942,1.236c2.976-.067,5.955-0.025,8.933-0.026a0.338,0.338,0,0,0,.059-0.125C994.627,788.871,994.673,785.305,994.606,781.739Zm-4.921,7.609c-1.438,0-2.877-.018-4.315.01-0.465.009-.58-0.141-0.58-0.589,0-1.624-.021-1.624,1.612-1.624h1.671c0.928,0,1.856.018,2.783-.009,0.4-.01.5,0.122,0.51,0.51C991.406,789.349,991.419,789.348,989.685,789.348Zm71.535-7.609c-0.64-.374-0.97-1.268-1.94-1.107-0.3.051-.24-0.279-0.23-0.463a1.028,1.028,0,0,0-.47-0.993,3.756,3.756,0,0,1-.61-0.635,0.457,0.457,0,0,0-.33-0.081q-3.5,0-6.98,0c-0.13,0-.29-0.056-0.36.131l0.01,0.037a16.623,16.623,0,0,1,0,2.993l-0.01.031a0.572,0.572,0,0,0,.63.13c1.84,0.012,3.68.007,5.51,0.007,1.47,0,1.45,0,1.48,1.436,0,0.512-.12.676-0.66,0.666-1.77-.035-3.53-0.023-5.3-0.009a23.846,23.846,0,0,0-2.78.048c-0.33.33-.67,0.661-1,0.992a43.8,43.8,0,0,0-.01,4.438,6.022,6.022,0,0,0,1.01,1,8.4,8.4,0,0,1,1.09.117l0.02,0.02a1.245,1.245,0,0,1,.02.851,1.99,1.99,0,0,0,1.94,1.236c2.97-.067,5.95-0.025,8.93-0.026a0.358,0.358,0,0,0,.06-0.125C1061.24,788.871,1061.29,785.305,1061.22,781.739Zm-4.91,7.609h-1.67c-0.9,0-1.81-.015-2.71.008a0.425,0.425,0,0,1-.53-0.5c-0.05-1.706-.06-1.706,1.67-1.706,1.46,0,2.93.011,4.39-.008a0.416,0.416,0,0,1,.52.5C1058.02,789.349,1058.04,789.348,1056.31,789.348Zm-103.041-7.609c-0.639-.374-0.963-1.268-1.936-1.107-0.3.051-.237-0.279-0.232-0.463a1.027,1.027,0,0,0-.471-0.993,3.847,3.847,0,0,1-.612-0.635c-2.184-.16-4.37-0.084-6.554-0.041a3.532,3.532,0,0,0-1.107,1.239,1.205,1.205,0,0,1-.017.837,2.333,2.333,0,0,0-2.12,1.154c-0.068,2.544-.073,5.088,0,7.632a6,6,0,0,0,1.007,1,8.419,8.419,0,0,1,1.1.117l0.014,0.02a1.233,1.233,0,0,1,.018.851,2,2,0,0,0,1.941,1.236c2.6-.072,5.21-0.025,7.816-0.026,0.159-.871,0-1.752.078-2.623,0.049-.537-0.152-0.657-0.664-0.65-2.185.027-4.371,0.011-6.556,0.011-1.461,0-1.435,0-1.46-1.448-0.009-.528.147-0.658,0.665-0.652,2.767,0.024,5.534.013,8.3,0.008a1.534,1.534,0,0,0,.754-0.064l0,0C953.366,785.341,953.3,783.54,953.269,781.739Zm-4.92,2.194c-1.438,0-2.877-.018-4.315.01-0.469.009-.579-0.147-0.58-0.593,0-1.623-.021-1.623,1.615-1.623h1.671c0.928,0,1.856.018,2.784-.009,0.406-.012.5,0.133,0.506,0.515C950.069,783.933,950.081,783.933,948.349,783.933Zm74.461-2.194c-0.63-.374-0.96-1.268-1.93-1.107-0.31.051-.24-0.279-0.23-0.463a1.028,1.028,0,0,0-.47-0.993,4.246,4.246,0,0,1-.62-0.635c-2.18-.16-4.37-0.084-6.55-0.041a3.521,3.521,0,0,0-1.11,1.239,1.205,1.205,0,0,1-.01.837,2.314,2.314,0,0,0-2.12,1.154c-0.07,2.544-.08,5.088,0,7.632a5.963,5.963,0,0,0,1,1,8.37,8.37,0,0,1,1.1.117l0.01,0.02a1.189,1.189,0,0,1,.02.851,2,2,0,0,0,1.94,1.236c2.61-.072,5.21-0.025,7.82-0.026,0.16-.871,0-1.752.08-2.623,0.05-.537-0.15-0.657-0.67-0.65-2.18.026-4.37,0.011-6.55,0.011-1.46,0-1.44,0-1.46-1.448-0.01-.528.14-0.658,0.66-0.652,2.77,0.024,5.54.013,8.3,0.008a1.568,1.568,0,0,0,.76-0.064v0C1022.91,785.341,1022.84,783.54,1022.81,781.739Zm-4.85,2.194c-1.44,0-2.88-.016-4.31.009-0.46.007-.66-0.075-0.65-0.6,0-1.62-.02-1.62,1.62-1.62h1.74c0.88,0,1.76.026,2.64-.011,0.48-.02.58,0.151,0.58,0.589C1019.58,783.933,1019.6,783.933,1017.96,783.933Zm66.02-2.194c-0.64-.373-0.96-1.284-1.93-1.1-0.27.049-.26-0.23-0.24-0.4a1.1,1.1,0,0,0-.57-1.15,3.447,3.447,0,0,1-.51-0.545c-2.18-.16-4.37-0.084-6.55-0.041a3.521,3.521,0,0,0-1.11,1.239,1.205,1.205,0,0,1-.02.837,2.336,2.336,0,0,0-2.12,1.154q-0.105,3.816,0,7.632a6.422,6.422,0,0,0,1.01,1,8.37,8.37,0,0,1,1.1.117l0.01,0.02a1.245,1.245,0,0,1,.02.851,2,2,0,0,0,1.94,1.236c2.6-.072,5.21-0.025,7.82-0.026a25.526,25.526,0,0,0,.07-2.623c0.05-.537-0.15-0.657-0.66-0.65-2.18.027-4.37,0.011-6.56,0.011-1.46,0-1.43,0-1.46-1.448-0.01-.528.15-0.658,0.67-0.652,2.77,0.024,5.53.013,8.3,0.008a1.518,1.518,0,0,0,.75-0.064l0.01,0C1084.08,785.341,1084.01,783.54,1083.98,781.739Zm-4.88,2.194c-1.46,0-2.92-.014-4.38.009a0.446,0.446,0,0,1-.55-0.55c-0.03-1.665-.04-1.665,1.64-1.665h1.67c0.93,0,1.86.014,2.78-.008a0.39,0.39,0,0,1,.48.472C1080.81,783.933,1080.82,783.933,1079.1,783.933ZM929.347,776.3l-3.2,0,0-3.178,3.2-.006Q929.347,774.7,929.347,776.3Z" transform="translate(-886 -773)"/>
</svg>
