<svg xmlns="http://www.w3.org/2000/svg" width="18.65" height="18.625" viewBox="0 0 18.65 18.625">
  <defs>
    <style>
      .cls-1 {
        fill: #fff;
        fill-rule: evenodd;
      }
    </style>
  </defs>
  <path id="Close" class="cls-1" d="M1099.33,67.519l6.89-6.978a0.2,0.2,0,0,1,.21-0.071,1.3,1.3,0,0,0-.07-1.929,1.386,1.386,0,0,0-1.9.071l-6.97,7.05-6.87-6.948a1.368,1.368,0,0,0-1.98-.143,1.533,1.533,0,0,0,.07,1.929l6.94,7.019-6.95,7.029-0.07.071a1.19,1.19,0,0,0,0,1.858,1.4,1.4,0,0,0,1.91-.071l6.95-7.028,6.98,7.059a1.3,1.3,0,0,0,1.83,0,1.338,1.338,0,0,0,0-1.858Z" transform="translate(-1088.19 -58.188)"/>
</svg>
